<svg version="1.1" xmlns="http://www.w3.org/2000/svg" viewBox="0 0 1245 1072" width="2490" height="2144" filter="invert(93%) hue-rotate(180deg)">
  <!-- svg-source:excalidraw -->
  
  <defs>
    <style class="style-fonts">
      @font-face {
        font-family: "Virgil";
        src: url("https://unpkg.com/@excalidraw/excalidraw@undefined/dist/excalidraw-assets/Virgil.woff2");
      }
      @font-face {
        font-family: "Cascadia";
        src: url("https://unpkg.com/@excalidraw/excalidraw@undefined/dist/excalidraw-assets/Cascadia.woff2");
      }
      @font-face {
        font-family: "Assistant";
        src: url("https://unpkg.com/@excalidraw/excalidraw@undefined/dist/excalidraw-assets/Assistant-Regular.woff2");
      }
    </style>
    
  </defs>
  <rect x="0" y="0" width="1245" height="1072" fill="#fafafa"></rect><g stroke-linecap="round" transform="translate(10 10) rotate(0 75 32.5)"><path d="M0 0 C34.35 -1.41, 73.59 -1.22, 150 0 M0 0 C53.95 0.56, 107.14 -0.73, 150 0 M150 0 C149.49 18.64, 151.08 36.18, 150 65 M150 0 C151.29 20.82, 150.61 43.42, 150 65 M150 65 C107.62 63.56, 69.52 66.57, 0 65 M150 65 C103.28 65.48, 56.09 65.82, 0 65 M0 65 C0.39 50.76, 1 33.88, 0 0 M0 65 C0.81 49.57, 1.26 35.42, 0 0" stroke="#f08c00" stroke-width="2" fill="none"></path></g><g stroke-linecap="round" transform="translate(10 997) rotate(0 75 32.5)"><path d="M0 0 C41.65 2.69, 84.22 2.4, 150 0 M0 0 C51.38 -0.34, 100.62 -1.6, 150 0 M150 0 C151.47 17.46, 151.7 32.61, 150 65 M150 0 C149.44 25.38, 150.78 50.39, 150 65 M150 65 C93.79 63.94, 42.49 63.8, 0 65 M150 65 C109.12 65.36, 69.52 64.72, 0 65 M0 65 C1.02 48.92, -0.49 29.92, 0 0 M0 65 C-1.33 52.28, -0.75 38.44, 0 0" stroke="#1e1e1e" stroke-width="2" fill="none"></path></g><g stroke-linecap="round" transform="translate(210 10) rotate(0 75 32.5)"><path d="M0 0 C53.24 0.01, 104.82 1.28, 150 0 M0 0 C48.87 -1.71, 95.56 -1.81, 150 0 M150 0 C151.37 22.49, 150.49 43.67, 150 65 M150 0 C150.49 19.19, 150.15 37.2, 150 65 M150 65 C100.85 64.7, 51.17 62.91, 0 65 M150 65 C90.86 63, 31.07 63.18, 0 65 M0 65 C0.69 44.03, -1.51 21.94, 0 0 M0 65 C0.52 39.08, 0.06 13.73, 0 0" stroke="#2f9e44" stroke-width="2" fill="none"></path></g><g stroke-linecap="round" transform="translate(210 997) rotate(0 75 32.5)"><path d="M0 0 C31.29 0.05, 64.38 -0.64, 150 0 M0 0 C57.2 -1.72, 114.74 -1.16, 150 0 M150 0 C151.99 19.5, 152.23 37.54, 150 65 M150 0 C150.62 23.77, 150.33 48.44, 150 65 M150 65 C120.68 65.56, 88.45 67.18, 0 65 M150 65 C100.85 64.38, 52.47 65.18, 0 65 M0 65 C-0.75 43.63, -2.25 27.14, 0 0 M0 65 C0.34 44.41, 0.8 23.18, 0 0" stroke="#1e1e1e" stroke-width="2" fill="none"></path></g><g stroke-linecap="round" transform="translate(567 10) rotate(0 75 32.5)"><path d="M0 0 C40.66 1.14, 79.56 2.09, 150 0 M0 0 C57.42 0.12, 115.74 0.57, 150 0 M150 0 C151 25.6, 150.09 49.01, 150 65 M150 0 C149.72 17.26, 150.32 32.3, 150 65 M150 65 C119.47 65.17, 90.3 66.31, 0 65 M150 65 C118.42 63.7, 88.28 64.18, 0 65 M0 65 C-1.7 39.94, 1.7 19.04, 0 0 M0 65 C-0.23 50.4, -0.67 35.59, 0 0" stroke="#e03131" stroke-width="2" fill="none"></path></g><g stroke-linecap="round" transform="translate(567 997) rotate(0 75 32.5)"><path d="M0 0 C56.04 -0.42, 112.29 0.89, 150 0 M0 0 C58.3 0.73, 117.59 1.17, 150 0 M150 0 C152.3 23.76, 151.91 47.38, 150 65 M150 0 C151.21 20, 149.62 38.45, 150 65 M150 65 C101.34 67.08, 54.51 63.32, 0 65 M150 65 C104.45 64.21, 59.8 64.61, 0 65 M0 65 C-1.76 45.07, 0.52 19.86, 0 0 M0 65 C0.42 41.02, 0.56 17.77, 0 0" stroke="#1e1e1e" stroke-width="2" fill="none"></path></g><g stroke-linecap="round" transform="translate(885 10) rotate(0 75 32.5)"><path d="M0 0 C41.37 1.13, 83.66 1.29, 150 0 M0 0 C38.72 0.72, 77.67 1.51, 150 0 M150 0 C149.8 25.97, 149.29 49.18, 150 65 M150 0 C150.11 24.42, 148.86 50.97, 150 65 M150 65 C98.49 64.97, 41.33 64.51, 0 65 M150 65 C114.02 64.44, 78.27 64.74, 0 65 M0 65 C2.42 47.14, -0.92 29.79, 0 0 M0 65 C-0.37 46.75, 0.12 28.01, 0 0" stroke="#1971c2" stroke-width="2" fill="none"></path></g><g stroke-linecap="round" transform="translate(885 997) rotate(0 75 32.5)"><path d="M0 0 C54.79 1.41, 108.06 -1.16, 150 0 M0 0 C39.87 0.33, 80.62 0.45, 150 0 M150 0 C151.99 20.37, 150.64 44.32, 150 65 M150 0 C149.43 16.58, 150.6 35.61, 150 65 M150 65 C103.52 64.54, 56.1 65.23, 0 65 M150 65 C114.59 65.82, 79.42 65.06, 0 65 M0 65 C1.01 48.87, 1.92 35.31, 0 0 M0 65 C0.26 44.5, 0.26 22.86, 0 0" stroke="#1e1e1e" stroke-width="2" fill="none"></path></g><g stroke-linecap="round" transform="translate(1085 10) rotate(0 75 32.5)"><path d="M0 0 C52.23 0.58, 100.19 -1.94, 150 0 M0 0 C37.67 0.84, 74.79 0.4, 150 0 M150 0 C149 25.41, 151.69 50.08, 150 65 M150 0 C149.25 23.73, 150.76 47.2, 150 65 M150 65 C108.18 65.37, 68.93 64.09, 0 65 M150 65 C111.78 65.46, 72.24 64.36, 0 65 M0 65 C-2.03 52.93, -0.87 38.63, 0 0 M0 65 C0.4 43.76, -0.48 20.62, 0 0" stroke="#f08c00" stroke-width="2" fill="none"></path></g><g stroke-linecap="round" transform="translate(1085 997) rotate(0 75 32.5)"><path d="M0 0 C49.79 -2.14, 95.22 -2.34, 150 0 M0 0 C49.03 -0.21, 96.9 -0.09, 150 0 M150 0 C150.52 20.1, 149.85 37.82, 150 65 M150 0 C149.57 22.03, 149.5 42.6, 150 65 M150 65 C90.87 62.41, 30.44 62.77, 0 65 M150 65 C102.85 65.66, 54.25 64.91, 0 65 M0 65 C1.17 38.96, 0.26 14.07, 0 0 M0 65 C0.17 46.47, -1.25 29.61, 0 0" stroke="#1e1e1e" stroke-width="2" fill="none"></path></g><g stroke-linecap="round" transform="translate(60 85) rotate(0 462.5 19.5)"><path d="M0 0 C355.08 -3.68, 710.43 -3.24, 925 0 M925 0 C926.82 11.91, 927.06 22.38, 925 39 M925 39 C583.19 38.87, 240.43 39.35, 0 39 M0 39 C1.49 31.35, -0.3 25.06, 0 0" stroke="#1e1e1e" stroke-width="2.5" fill="none" stroke-dasharray="8 10"></path></g><g stroke-linecap="round" transform="translate(260 182) rotate(0 203.5 19.5)"><path d="M0 0 C156.34 0.39, 313.67 0.89, 407 0 M407 0 C407.82 16.08, 406.9 29.97, 407 39 M407 39 C302.5 41.73, 199.02 39.97, 0 39 M0 39 C0.18 30.32, 1.81 23.46, 0 0" stroke="#1e1e1e" stroke-width="2.5" fill="none" stroke-dasharray="8 10"></path></g><g stroke-linecap="round" transform="translate(617 279) rotate(0 184 19.5)"><path d="M0 0 C143.68 1.04, 288.58 1.59, 368 0 M368 0 C370.1 14.1, 369.71 28.07, 368 39 M368 39 C257.26 38.68, 143.77 37.13, 0 39 M0 39 C-0.89 28.41, 0.26 12.17, 0 0" stroke="#1e1e1e" stroke-width="2.5" fill="none" stroke-dasharray="8 10"></path></g><g stroke-linecap="round" transform="translate(617 424) rotate(0 184 19.5)"><path d="M0 0 C94.74 1.11, 189.74 2.1, 368 0 M368 0 C367.73 16.14, 367.22 29.53, 368 39 M368 39 C224.65 39.21, 79.37 40.66, 0 39 M0 39 C1.84 25.59, -1.93 11.25, 0 0" stroke="#1e1e1e" stroke-width="2.5" fill="none" stroke-dasharray="8 10"></path></g><g stroke-linecap="round" transform="translate(60 521) rotate(0 562.5 19.5)"><path d="M0 0 C299.57 -0.46, 599.85 -0.37, 1125 0 M1125 0 C1126.76 11.87, 1125.41 27.32, 1125 39 M1125 39 C820.92 39.61, 518.55 40.81, 0 39 M0 39 C0.61 24.92, 0.15 13.4, 0 0" stroke="#1e1e1e" stroke-width="2.5" fill="none" stroke-dasharray="8 10"></path></g><g stroke-linecap="round" transform="translate(260 666) rotate(0 203.5 19.5)"><path d="M0 0 C101.15 0.98, 201.69 0.49, 407 0 M407 0 C406.05 15.27, 408.74 29.81, 407 39 M407 39 C258.58 37.03, 112.88 36.95, 0 39 M0 39 C-2.24 28.63, -1.55 16.96, 0 0" stroke="#1e1e1e" stroke-width="2.5" fill="none" stroke-dasharray="8 10"></path></g><g stroke-linecap="round" transform="translate(567 763) rotate(0 75 19.5)"><path d="M0 0 C49.74 0.56, 97.17 0.81, 150 0 M150 0 C150.33 12.78, 149.67 23.19, 150 39 M150 39 C100.85 38.7, 51.17 36.91, 0 39 M0 39 C-0.08 22.44, -1.36 7.41, 0 0" stroke="#1e1e1e" stroke-width="2.5" fill="none" stroke-dasharray="8 10"></path></g><g stroke-linecap="round" transform="translate(617 890) rotate(0 284 19.5)"><path d="M0 0 C166.28 -1.4, 332.03 -1.77, 568 0 M568 0 C569.64 13.83, 569.07 29.49, 568 39 M568 39 C453.2 39.56, 337.23 40.21, 0 39 M0 39 C-0.81 25.1, -0.46 14.08, 0 0" stroke="#1e1e1e" stroke-width="2.5" fill="none" stroke-dasharray="8 10"></path></g><g stroke-linecap="round"><g transform="translate(85 75) rotate(0 0 461)"><path d="M0 0 C2.84 338.37, 2.48 675.86, 0 922 M0 0 C-0.01 236.21, 0.23 471.53, 0 922" stroke="#999" stroke-width="1" fill="none"></path></g></g><mask></mask><g stroke-linecap="round"><g transform="translate(285 75) rotate(0 0 461)"><path d="M0 0 C3.59 342.11, 3.43 684.16, 0 922 M0 0 C3.59 279.5, 2.95 558.39, 0 922" stroke="#999" stroke-width="1" fill="none"></path></g></g><mask></mask><g stroke-linecap="round"><g transform="translate(642 75) rotate(0 0 461)"><path d="M0 0 C0.85 348.95, 0.64 696.8, 0 922 M0 0 C-1 359.72, -1.5 720.29, 0 922" stroke="#999" stroke-width="1" fill="none"></path></g></g><mask></mask><g stroke-linecap="round"><g transform="translate(960 75) rotate(0 0 461)"><path d="M0 0 C3.88 301.16, 3.34 603.75, 0 922 M0 0 C1.9 248.19, 2.37 497.37, 0 922" stroke="#999" stroke-width="1" fill="none"></path></g></g><mask></mask><g stroke-linecap="round"><g transform="translate(1160 75) rotate(0 0 461)"><path d="M0 0 C-1.04 359.55, 0.04 718.81, 0 922 M0 0 C0.74 333.92, 1.34 667.74, 0 922" stroke="#999" stroke-width="1" fill="none"></path></g></g><mask></mask><g mask="url(#mask-mBpQ2mcX1edlJ_-TODIJd)" stroke-linecap="round"><g transform="translate(86 162) rotate(0 435 0)"><path d="M-0.03 0.04 C145.02 -0.17, 725.54 -0.42, 870.59 -0.36 M1.89 -0.99 C146.9 -1.09, 725.55 1.11, 870.21 0.98" stroke="#1e1e1e" stroke-width="2" fill="none"></path></g><g transform="translate(86 162) rotate(0 435 0)"><path d="M846.7 9.49 C853.32 9.01, 859.26 6.05, 870.21 0.98 M846.7 9.49 C854.75 7.46, 862.44 3.75, 870.21 0.98" stroke="#1e1e1e" stroke-width="2" fill="none"></path></g><g transform="translate(86 162) rotate(0 435 0)"><path d="M846.73 -7.61 C853.46 -3.28, 859.4 -1.43, 870.21 0.98 M846.73 -7.61 C854.6 -3.99, 862.29 -2.05, 870.21 0.98" stroke="#1e1e1e" stroke-width="2" fill="none"></path></g></g><mask id="mask-mBpQ2mcX1edlJ_-TODIJd"><rect x="0" y="0" fill="#fff" width="1056" height="262"></rect><rect x="448.55859375" y="152" fill="#000" width="144.8828125" height="20" opacity="1"></rect></mask><g mask="url(#mask--KXqxHfGm0mUjdyIsWxfM)" stroke-linecap="round"><g transform="translate(286 259) rotate(0 176 0)"><path d="M0.54 1.09 C58.83 1.3, 292.58 1.12, 351.14 0.75 M-0.9 0.61 C57.13 0.53, 291.3 -0.81, 350 -0.99" stroke="#1e1e1e" stroke-width="2" fill="none"></path></g><g transform="translate(286 259) rotate(0 176 0)"><path d="M326.54 7.67 C337.08 3.85, 345.19 1.86, 350 -0.99 M326.54 7.67 C331.94 6, 335.8 5.05, 350 -0.99" stroke="#1e1e1e" stroke-width="2" fill="none"></path></g><g transform="translate(286 259) rotate(0 176 0)"><path d="M326.47 -9.43 C336.95 -6.92, 345.1 -2.58, 350 -0.99 M326.47 -9.43 C331.72 -7.63, 335.6 -5.11, 350 -0.99" stroke="#1e1e1e" stroke-width="2" fill="none"></path></g></g><mask id="mask--KXqxHfGm0mUjdyIsWxfM"><rect x="0" y="0" fill="#fff" width="738" height="359"></rect><rect x="352.0703125" y="239" fill="#000" width="219.859375" height="40" opacity="1"></rect></mask><g mask="url(#mask-_473t2s3LywLyEv4-HtEF)" stroke-linecap="round"><g transform="translate(959 356) rotate(0 -335 0)"><path d="M0.59 -0.36 C-110.7 -0.31, -556.88 0.49, -668.75 0.36 M-0.3 -1.6 C-111.64 -1.92, -557.97 -1.77, -669.31 -1.57" stroke="#1e1e1e" stroke-width="2" fill="none"></path></g><g transform="translate(959 356) rotate(0 -335 0)"><path d="M-645.83 -10.14 C-652.44 -6.49, -657.24 -7.48, -669.31 -1.57 M-645.83 -10.14 C-650.5 -8.59, -654.51 -6.25, -669.31 -1.57" stroke="#1e1e1e" stroke-width="2" fill="none"></path></g><g transform="translate(959 356) rotate(0 -335 0)"><path d="M-645.81 6.96 C-652.44 6.23, -657.24 0.87, -669.31 -1.57 M-645.81 6.96 C-650.52 5, -654.53 3.83, -669.31 -1.57" stroke="#1e1e1e" stroke-width="2" fill="none"></path></g></g><mask id="mask-_473t2s3LywLyEv4-HtEF"><rect x="0" y="0" fill="#fff" width="1729" height="456"></rect><rect x="555.12890625" y="346" fill="#000" width="137.7421875" height="20" opacity="1"></rect></mask><g mask="url(#mask-BaCctM-u8BhK5y2asjuwc)" stroke-linecap="round"><g transform="translate(286 404) rotate(0 176 0)"><path d="M0.14 0.75 C58.69 0.37, 293.49 -1.08, 351.86 -1.17 M2.14 0.09 C60.57 0.33, 292.69 -0.5, 351.11 -0.24" stroke="#1e1e1e" stroke-width="2" fill="none"></path></g><g transform="translate(286 404) rotate(0 176 0)"><path d="M327.61 8.31 C335.9 6.4, 339.83 1.31, 351.11 -0.24 M327.61 8.31 C334.74 6.49, 342.83 1.87, 351.11 -0.24" stroke="#1e1e1e" stroke-width="2" fill="none"></path></g><g transform="translate(286 404) rotate(0 176 0)"><path d="M327.61 -8.79 C336.05 -5.52, 339.99 -5.43, 351.11 -0.24 M327.61 -8.79 C334.84 -5.14, 342.93 -4.29, 351.11 -0.24" stroke="#1e1e1e" stroke-width="2" fill="none"></path></g></g><mask id="mask-BaCctM-u8BhK5y2asjuwc"><rect x="0" y="0" fill="#fff" width="738" height="504"></rect><rect x="371.37890625" y="394" fill="#000" width="181.2421875" height="20" opacity="1"></rect></mask><g mask="url(#mask-RroWD4GNGqfIi5Hf55RJ2)" stroke-linecap="round"><g transform="translate(959 501) rotate(0 -156.5 0)"><path d="M0.25 0.36 C-52.13 0.23, -261.58 -1.19, -313.67 -1.14 M-0.82 -0.49 C-52.94 -0.48, -259.55 -0.06, -311.56 -0.2" stroke="#1e1e1e" stroke-width="2" fill="none"></path></g><g transform="translate(959 501) rotate(0 -156.5 0)"><path d="M-288.07 -8.75 C-296.67 -7.2, -308.34 -1.52, -311.56 -0.2 M-288.07 -8.75 C-295.48 -5.54, -305.72 -2.73, -311.56 -0.2" stroke="#1e1e1e" stroke-width="2" fill="none"></path></g><g transform="translate(959 501) rotate(0 -156.5 0)"><path d="M-288.07 8.35 C-296.62 3.22, -308.29 2.22, -311.56 -0.2 M-288.07 8.35 C-295.5 5.47, -305.75 2.2, -311.56 -0.2" stroke="#1e1e1e" stroke-width="2" fill="none"></path></g></g><mask id="mask-RroWD4GNGqfIi5Hf55RJ2"><rect x="0" y="0" fill="#fff" width="1372" height="601"></rect><rect x="710.0703125" y="481" fill="#000" width="184.859375" height="40" opacity="1"></rect></mask><g mask="url(#mask-WZ7-OtKKG1SlVPndIFn7w)" stroke-linecap="round"><g transform="translate(959 598) rotate(0 -435 0)"><path d="M-0.14 -1.17 C-145.1 -1.25, -725.85 0.02, -870.64 0.24 M-1.4 0.84 C-145.98 0.3, -723.88 -1.88, -868.52 -1.76" stroke="#1e1e1e" stroke-width="2" fill="none"></path></g><g transform="translate(959 598) rotate(0 -435 0)"><path d="M-845.01 -10.27 C-853.24 -9.8, -857.24 -4.49, -868.52 -1.76 M-845.01 -10.27 C-852.16 -8.32, -859.75 -5.31, -868.52 -1.76" stroke="#1e1e1e" stroke-width="2" fill="none"></path></g><g transform="translate(959 598) rotate(0 -435 0)"><path d="M-845.04 6.83 C-853.37 2.69, -857.36 3.39, -868.52 -1.76 M-845.04 6.83 C-852.13 3.43, -859.71 1.09, -868.52 -1.76" stroke="#1e1e1e" stroke-width="2" fill="none"></path></g></g><mask id="mask-WZ7-OtKKG1SlVPndIFn7w"><rect x="0" y="0" fill="#fff" width="1929" height="698"></rect><rect x="440.7421875" y="588" fill="#000" width="166.515625" height="20" opacity="1"></rect></mask><g mask="url(#mask-zHcH265fn0MH2FzdDK7tH)" stroke-linecap="round"><g transform="translate(86 646) rotate(0 535 0)"><path d="M-0.67 -1.14 C177.42 -1.09, 891.35 0.55, 1069.74 0.67 M0.92 0.88 C178.8 0.55, 890.91 -1.07, 1068.92 -1.1" stroke="#1e1e1e" stroke-width="2" fill="none"></path></g><g transform="translate(86 646) rotate(0 535 0)"><path d="M1045.44 7.48 C1052.02 5, 1063.53 1.76, 1068.92 -1.1 M1045.44 7.48 C1050.67 5.15, 1057.27 2.22, 1068.92 -1.1" stroke="#1e1e1e" stroke-width="2" fill="none"></path></g><g transform="translate(86 646) rotate(0 535 0)"><path d="M1045.41 -9.62 C1052.05 -5.91, 1063.58 -2.96, 1068.92 -1.1 M1045.41 -9.62 C1050.81 -7.39, 1057.42 -5.77, 1068.92 -1.1" stroke="#1e1e1e" stroke-width="2" fill="none"></path></g></g><mask id="mask-zHcH265fn0MH2FzdDK7tH"><rect x="0" y="0" fill="#fff" width="1256" height="746"></rect><rect x="543.234375" y="636" fill="#000" width="155.53125" height="20" opacity="1"></rect></mask><g mask="url(#mask-cR9Lwp-jPH2yRBYlKr-1I)" stroke-linecap="round"><g transform="translate(286 743) rotate(0 176 0)"><path d="M-0.64 0.24 C57.91 0.46, 293.55 0.01, 352.17 0.16 M0.97 -0.68 C59.39 -0.14, 293.39 1.77, 351.58 1.78" stroke="#1e1e1e" stroke-width="2" fill="none"></path></g><g transform="translate(286 743) rotate(0 176 0)"><path d="M328.04 10.21 C336.3 8.77, 343.93 4.19, 351.58 1.78 M328.04 10.21 C337.31 6.52, 345.95 3.37, 351.58 1.78" stroke="#1e1e1e" stroke-width="2" fill="none"></path></g><g transform="translate(286 743) rotate(0 176 0)"><path d="M328.13 -6.89 C336.19 -2.68, 343.79 -1.62, 351.58 1.78 M328.13 -6.89 C337.4 -3.84, 346.01 -0.25, 351.58 1.78" stroke="#1e1e1e" stroke-width="2" fill="none"></path></g></g><mask id="mask-cR9Lwp-jPH2yRBYlKr-1I"><rect x="0" y="0" fill="#fff" width="738" height="843"></rect><rect x="354.35546875" y="733" fill="#000" width="215.2890625" height="20" opacity="1"></rect></mask><g mask="url(#mask-aFgWpnI99mSANogQKtA0H)" stroke-linecap="round"><g transform="translate(643 840) rotate(0 33.35029451098649 10.720590074971938)"><path d="M-0.26 0.17 C10.04 -1.29, 49.92 -15.42, 60.16 -10.4 C70.39 -5.39, 71.26 25.13, 61.13 30.28 C51 35.44, 9.6 22.27, -0.62 20.51 M-1.6 -0.52 C8.67 -1.71, 48.86 -14.46, 59.29 -9.08 C69.72 -3.7, 71 26.64, 60.96 31.75 C50.92 36.87, 8.92 23.62, -0.97 21.62" stroke="#1e1e1e" stroke-width="2" fill="none"></path></g><g transform="translate(643 840) rotate(0 33.35029451098649 10.720590074971938)"><path d="M23.91 19.14 C19.96 19.95, 13.12 22.08, -0.97 21.62 M23.91 19.14 C15.24 19.31, 7.36 20.91, -0.97 21.62" stroke="#1e1e1e" stroke-width="2" fill="none"></path></g><g transform="translate(643 840) rotate(0 33.35029451098649 10.720590074971938)"><path d="M19.68 35.71 C16.75 33.15, 10.76 31.92, -0.97 21.62 M19.68 35.71 C12.54 30.52, 6.03 26.76, -0.97 21.62" stroke="#1e1e1e" stroke-width="2" fill="none"></path></g></g><mask id="mask-aFgWpnI99mSANogQKtA0H"><rect x="0" y="0" fill="#fff" width="803" height="980"></rect><rect x="630.8628616305086" y="840.2855623395931" fill="#000" width="160.8515625" height="20" opacity="1"></rect></mask><g mask="url(#mask-pExTV4JhMHh8yKqiVsHNo)" stroke-linecap="round"><g transform="translate(1159 967) rotate(0 -256.5 0)"><path d="M0.17 0.16 C-85.04 0.31, -427.51 1.35, -512.9 1.13 M-0.93 -0.81 C-86.24 -0.99, -428.75 -0.46, -514.07 -0.4" stroke="#1e1e1e" stroke-width="2" fill="none"></path></g><g transform="translate(1159 967) rotate(0 -256.5 0)"><path d="M-490.58 -8.97 C-495.13 -7.76, -498.32 -4.85, -514.07 -0.4 M-490.58 -8.97 C-496.06 -7.76, -500.1 -5.51, -514.07 -0.4" stroke="#1e1e1e" stroke-width="2" fill="none"></path></g><g transform="translate(1159 967) rotate(0 -256.5 0)"><path d="M-490.56 8.13 C-495.14 5.83, -498.34 5.23, -514.07 -0.4 M-490.56 8.13 C-496.05 5.82, -500.09 4.53, -514.07 -0.4" stroke="#1e1e1e" stroke-width="2" fill="none"></path></g></g><mask id="mask-pExTV4JhMHh8yKqiVsHNo"><rect x="0" y="0" fill="#fff" width="1772" height="1067"></rect><rect x="790.9609375" y="957" fill="#000" width="223.078125" height="20" opacity="1"></rect></mask><g transform="translate(46.11328125 32.5) rotate(0 38.88671875 10)"><text x="38.88671875" y="0" font-family="Virgil, Segoe UI Emoji" font-size="16px" fill="#f08c00" text-anchor="middle" style="white-space: pre;" direction="ltr" dominant-baseline="text-before-edge">EVM Chain</text></g><g transform="translate(46.11328125 1019.5) rotate(0 38.88671875 10)"><text x="38.88671875" y="0" font-family="Virgil, Segoe UI Emoji" font-size="16px" fill="#000" text-anchor="middle" style="white-space: pre;" direction="ltr" dominant-baseline="text-before-edge">EVM Chain</text></g><g transform="translate(238.56640625 32.5) rotate(0 46.43359375 10)"><text x="46.43359375" y="0" font-family="Virgil, Segoe UI Emoji" font-size="16px" fill="#2f9e44" text-anchor="middle" style="white-space: pre;" direction="ltr" dominant-baseline="text-before-edge">Gamma Chain</text></g><g transform="translate(238.56640625 1019.5) rotate(0 46.43359375 10)"><text x="46.43359375" y="0" font-family="Virgil, Segoe UI Emoji" font-size="16px" fill="#000" text-anchor="middle" style="white-space: pre;" direction="ltr" dominant-baseline="text-before-edge">Gamma Chain</text></g><g transform="translate(603.5625 32.5) rotate(0 38.4375 10)"><text x="38.4375" y="0" font-family="Virgil, Segoe UI Emoji" font-size="16px" fill="#e03131" text-anchor="middle" style="white-space: pre;" direction="ltr" dominant-baseline="text-before-edge">Dapp Chain</text></g><g transform="translate(603.5625 1019.5) rotate(0 38.4375 10)"><text x="38.4375" y="0" font-family="Virgil, Segoe UI Emoji" font-size="16px" fill="#000" text-anchor="middle" style="white-space: pre;" direction="ltr" dominant-baseline="text-before-edge">Dapp Chain</text></g><g transform="translate(913.33984375 32.5) rotate(0 46.66015625 10)"><text x="46.66015625" y="0" font-family="Virgil, Segoe UI Emoji" font-size="16px" fill="#1971c2" text-anchor="middle" style="white-space: pre;" direction="ltr" dominant-baseline="text-before-edge">NFT Owner A</text></g><g transform="translate(913.33984375 1019.5) rotate(0 46.66015625 10)"><text x="46.66015625" y="0" font-family="Virgil, Segoe UI Emoji" font-size="16px" fill="#000" text-anchor="middle" style="white-space: pre;" direction="ltr" dominant-baseline="text-before-edge">NFT Owner A</text></g><g transform="translate(1113.78125 32.5) rotate(0 46.21875 10)"><text x="46.21875" y="0" font-family="Virgil, Segoe UI Emoji" font-size="16px" fill="#f08c00" text-anchor="middle" style="white-space: pre;" direction="ltr" dominant-baseline="text-before-edge">NFT Owner B</text></g><g transform="translate(1113.78125 1019.5) rotate(0 46.21875 10)"><text x="46.21875" y="0" font-family="Virgil, Segoe UI Emoji" font-size="16px" fill="#000" text-anchor="middle" style="white-space: pre;" direction="ltr" dominant-baseline="text-before-edge">NFT Owner B</text></g><g transform="translate(471.60546875 94.5) rotate(0 50.89453125 10)"><text x="50.89453125" y="0" font-family="Virgil, Segoe UI Emoji" font-size="16px" fill="#000" text-anchor="middle" style="white-space: pre;" direction="ltr" dominant-baseline="text-before-edge">1. NFT Minting</text></g><g transform="translate(401.94921875 191.5) rotate(0 61.55078125 10)"><text x="61.55078125" y="0" font-family="Virgil, Segoe UI Emoji" font-size="16px" fill="#000" text-anchor="middle" style="white-space: pre;" direction="ltr" dominant-baseline="text-before-edge">2. ICMF Broadcast</text></g><g transform="translate(725.96875 288.5) rotate(0 75.03125 10)"><text x="75.03125" y="0" font-family="Virgil, Segoe UI Emoji" font-size="16px" fill="#000" text-anchor="middle" style="white-space: pre;" direction="ltr" dominant-baseline="text-before-edge">3. Cross-chain Transfer</text></g><g transform="translate(736.90625 433.5) rotate(0 64.09375 10)"><text x="64.09375" y="0" font-family="Virgil, Segoe UI Emoji" font-size="16px" fill="#000" text-anchor="middle" style="white-space: pre;" direction="ltr" dominant-baseline="text-before-edge">4. Token Utilization</text></g><g transform="translate(550.578125 530.5) rotate(0 71.921875 10)"><text x="71.921875" y="0" font-family="Virgil, Segoe UI Emoji" font-size="16px" fill="#000" text-anchor="middle" style="white-space: pre;" direction="ltr" dominant-baseline="text-before-edge">5. Ownership Transfer</text></g><g transform="translate(373.73046875 675.5) rotate(0 89.76953125 10)"><text x="89.76953125" y="0" font-family="Virgil, Segoe UI Emoji" font-size="16px" fill="#000" text-anchor="middle" style="white-space: pre;" direction="ltr" dominant-baseline="text-before-edge">6. ICMF Ownership Update</text></g><g transform="translate(587.12890625 772.5) rotate(0 54.87109375 10)"><text x="54.87109375" y="0" font-family="Virgil, Segoe UI Emoji" font-size="16px" fill="#000" text-anchor="middle" style="white-space: pre;" direction="ltr" dominant-baseline="text-before-edge">7. Update Owner</text></g><g transform="translate(817.91015625 899.5) rotate(0 83.08984375 10)"><text x="83.08984375" y="0" font-family="Virgil, Segoe UI Emoji" font-size="16px" fill="#000" text-anchor="middle" style="white-space: pre;" direction="ltr" dominant-baseline="text-before-edge">8. New Owner Utilization</text></g><g transform="translate(448.55859375 152) rotate(0 72.72035294100641 9.996533247831351)"><text x="72.44140625" y="0" font-family="Virgil, Segoe UI Emoji" font-size="16px" fill="#1e1e1e" text-anchor="middle" style="white-space: pre;" direction="ltr" dominant-baseline="text-before-edge">Mint NFT to Owner A</text></g><g transform="translate(352.0703125 239) rotate(0 109.04534697362686 20.09564185691771)"><text x="109.9296875" y="0" font-family="Virgil, Segoe UI Emoji" font-size="16px" fill="#1e1e1e" text-anchor="middle" style="white-space: pre;" direction="ltr" dominant-baseline="text-before-edge">ICMF: Token minted (metadata + </text><text x="109.9296875" y="20" font-family="Virgil, Segoe UI Emoji" font-size="16px" fill="#1e1e1e" text-anchor="middle" style="white-space: pre;" direction="ltr" dominant-baseline="text-before-edge">owner)</text></g><g transform="translate(555.12890625 346) rotate(0 69.50860060736068 9.295514426076693)"><text x="68.87109375" y="0" font-family="Virgil, Segoe UI Emoji" font-size="16px" fill="#1e1e1e" text-anchor="middle" style="white-space: pre;" direction="ltr" dominant-baseline="text-before-edge">Initiate ICCF transfer</text></g><g transform="translate(371.37890625 394) rotate(0 90.62046790793539 9.789977698773129)"><text x="90.62109375" y="0" font-family="Virgil, Segoe UI Emoji" font-size="16px" fill="#1e1e1e" text-anchor="middle" style="white-space: pre;" direction="ltr" dominant-baseline="text-before-edge">Execute cross-chain transfer</text></g><g transform="translate(710.0703125 481) rotate(0 92.21966519877316 19.612817766907312)"><text x="92.4296875" y="0" font-family="Virgil, Segoe UI Emoji" font-size="16px" fill="#1e1e1e" text-anchor="middle" style="white-space: pre;" direction="ltr" dominant-baseline="text-before-edge">Can now use token on Dapp </text><text x="92.4296875" y="20" font-family="Virgil, Segoe UI Emoji" font-size="16px" fill="#1e1e1e" text-anchor="middle" style="white-space: pre;" direction="ltr" dominant-baseline="text-before-edge">Chain</text></g><g transform="translate(440.7421875 588) rotate(0 82.87130997851494 9.5371350457998)"><text x="83.2578125" y="0" font-family="Virgil, Segoe UI Emoji" font-size="16px" fill="#1e1e1e" text-anchor="middle" style="white-space: pre;" direction="ltr" dominant-baseline="text-before-edge">Transfer NFT to Owner B</text></g><g transform="translate(543.234375 636) rotate(0 77.30241039320822 9.872330950130731)"><text x="77.765625" y="0" font-family="Virgil, Segoe UI Emoji" font-size="16px" fill="#1e1e1e" text-anchor="middle" style="white-space: pre;" direction="ltr" dominant-baseline="text-before-edge">NFT ownership updated</text></g><g transform="translate(354.35546875 733) rotate(0 107.41224680617455 10.547269105585258)"><text x="107.64453125" y="0" font-family="Virgil, Segoe UI Emoji" font-size="16px" fill="#1e1e1e" text-anchor="middle" style="white-space: pre;" direction="ltr" dominant-baseline="text-before-edge">ICMF: Token ownership changed</text></g><g transform="translate(630.8628616305084 840.2855623395932) rotate(0 45.48743288047797 10.435027735378753)"><text x="80.42578125" y="0" font-family="Virgil, Segoe UI Emoji" font-size="16px" fill="#1e1e1e" text-anchor="middle" style="white-space: pre;" direction="ltr" dominant-baseline="text-before-edge">Update token owner to B</text></g><g transform="translate(790.9609375 957) rotate(0 111.09251799011139 10.158288147267172)"><text x="111.5390625" y="0" font-family="Virgil, Segoe UI Emoji" font-size="16px" fill="#1e1e1e" text-anchor="middle" style="white-space: pre;" direction="ltr" dominant-baseline="text-before-edge">Can now use token on Dapp Chain</text></g></svg>